<?xml version="1.0" encoding="UTF-8" standalone="no"?>
<svg
   xmlns:dc="http://purl.org/dc/elements/1.1/"
   xmlns:cc="http://creativecommons.org/ns#"
   xmlns:rdf="http://www.w3.org/1999/02/22-rdf-syntax-ns#"
   xmlns:svg="http://www.w3.org/2000/svg"
   xmlns="http://www.w3.org/2000/svg"
   xmlns:sodipodi="http://sodipodi.sourceforge.net/DTD/sodipodi-0.dtd"
   xmlns:inkscape="http://www.inkscape.org/namespaces/inkscape"
   width="12511.568"
   height="6280.9092"
   viewBox="0 0 12511.568 6280.9092"
   version="1.1"
   xml:space="preserve"
   style="clip-rule:evenodd;fill-rule:evenodd;stroke-linecap:round;stroke-linejoin:round;stroke-miterlimit:10"
   id="svg1008"
   sodipodi:docname="symptom_clusters_outcome.svg"
   inkscape:version="0.92.2 5c3e80d, 2017-08-06"><metadata
     id="metadata1014"><rdf:RDF><cc:Work
         rdf:about=""><dc:format>image/svg+xml</dc:format><dc:type
           rdf:resource="http://purl.org/dc/dcmitype/StillImage" /><dc:title></dc:title></cc:Work></rdf:RDF></metadata><defs
     id="defs1012" /><sodipodi:namedview
     pagecolor="#ffffff"
     bordercolor="#666666"
     borderopacity="1"
     objecttolerance="10"
     gridtolerance="10"
     guidetolerance="10"
     inkscape:pageopacity="0"
     inkscape:pageshadow="2"
     inkscape:window-width="1185"
     inkscape:window-height="691"
     id="namedview1010"
     showgrid="false"
     fit-margin-top="0"
     fit-margin-left="0"
     fit-margin-right="0"
     fit-margin-bottom="0"
     inkscape:zoom="0.02"
     inkscape:cx="1291.6717"
     inkscape:cy="1325.2831"
     inkscape:window-x="0"
     inkscape:window-y="0"
     inkscape:window-maximized="0"
     inkscape:current-layer="svg1008" /><g
     id="g4"
     transform="matrix(4.7831334,0,0,4.9951559,-2560.2472,-15350.488)"><rect
       id="rect2"
       style="fill:#ffffff;stroke:#ffffff;stroke-width:4.73000002px"
       height="1252.67"
       width="2588.6299"
       y="3075.4399"
       x="560.039" /></g><g
     id="g8"
     transform="matrix(4.7831334,0,0,4.9951559,-2560.2472,-18655.483)"><path
       inkscape:connector-curvature="0"
       id="path6"
       style="fill:none;fill-rule:nonzero;stroke:#e6ab02;stroke-width:4.86000013px;stroke-linecap:butt"
       d="m 806.995,3805.45 v 14.03 h 56.722 v 32.09 h 56.723 v 25.09 h 56.722 v 30.07 h 56.718 v 31.1 h 56.73 v 23.06 h 56.72 v 26.07 h 56.72 v 22.08 h 56.73 v 32.07 h 56.72 v 22.08 h 56.72 v 15.04 h 56.73 v 23.06 h 56.72 v 17.03 h 56.73 v 21.07 h 56.72 v 20.07 h 56.73 v 11.03 h 56.72 v 10.01 h 56.73 v 9.04 h 56.72 v 14.06 h 56.73 v 9 h 56.68 v 7.01 h 56.72 v 3.03 h 56.73 v 6.01 h 56.72 v 4.01 h 56.72 v 3 h 56.73 v 6.04 h 56.72 v 8.02 h 113.45 v 4.02 h 56.73 v 4.01 h 56.72 v 1.99 h 56.73" /></g><g
     id="g12"
     transform="matrix(4.7831334,0,0,4.9951559,-2560.2472,-19287.27)"><path
       inkscape:connector-curvature="0"
       id="path10"
       style="fill:none;fill-rule:nonzero;stroke:#000000;stroke-width:8.14000034px;stroke-linecap:butt;stroke-linejoin:miter"
       d="m 806.995,3931.93 v 4.3 h 56.722 v 17.85 h 56.723 v 24.17 h 56.722 v 28.61 h 56.718 v 27.47 h 56.73 v 32.22 h 56.72 v 27.77 h 56.72 v 22.87 h 56.73 v 23.45 h 56.72 v 14.22 h 56.72 v 12.66 h 56.73 v 10.5 h 56.72 v 11.23 h 56.73 v 9.91 h 56.72 v 7.05 h 56.73 v 6.07 h 56.72 v 6.59 h 56.73 v 5.48 h 56.72 v 4.17 h 56.73 v 3.89 h 56.68 v 5.02 h 56.72 v 4.6 h 56.73 v 4.04 h 56.72 v 2.72 h 56.72 v 2.6 h 56.73 v 2.03 h 56.72 v 2.44 h 56.73 v 1.56 h 56.72 v 1.02 h 56.73 v 0.59 h 56.72 v 0.71 h 56.73" /></g><g
     id="g16"
     transform="matrix(4.7831334,0,0,4.9951559,-2560.2472,-18353.076)"><path
       inkscape:connector-curvature="0"
       id="path14"
       style="fill:none;fill-rule:nonzero;stroke:#a6761d;stroke-width:4.86000013px;stroke-linecap:butt"
       d="m 806.995,3744.91 v 11.71 h 56.722 v 32.22 h 56.723 v 40.26 h 56.722 v 49.09 h 56.718 v 49.79 h 56.73 v 43.23 h 56.72 v 28.53 h 56.72 v 35.18 h 56.73 v 41 h 56.72 v 25.64 h 56.72 v 24.14 h 56.73 v 13.93 h 56.72 v 16.12 h 56.73 v 10.98 h 56.72 v 12.43 h 56.73 v 7.35 h 56.72 v 10.96 h 56.73 v 14.65 h 56.72 v 6.59 h 56.73 v 7.34 h 56.68 v 4.4 h 56.72 v 5.83 h 56.73 v 4.41 h 56.72 v 4.41 h 56.72 v 2.9 h 56.73 v 1.47 h 56.72 v 1.46 h 56.73 v 2.94 h 56.72 v 2.93 h 56.73 v 2.19 h 56.72 v 0.75 h 56.73" /></g><g
     id="g20"
     transform="matrix(4.7831334,0,0,4.9951559,-2560.2472,-19029.62)"><path
       inkscape:connector-curvature="0"
       id="path18"
       style="fill:none;fill-rule:nonzero;stroke:#e7298a;stroke-width:4.86000013px;stroke-linecap:butt"
       d="m 806.995,3880.35 v 8.08 h 56.722 v 23.49 h 56.723 v 25.81 h 56.722 v 30.44 h 56.718 v 36.95 h 56.73 v 31.58 h 56.72 v 32.36 h 56.72 v 19.29 h 56.73 v 18.06 h 56.72 v 11.95 h 56.72 v 18.49 h 56.73 v 11.18 h 56.72 v 14.23 h 56.73 v 13.12 h 56.72 v 8.48 h 56.73 v 11.16 h 56.72 v 8.87 h 56.73 v 7.7 h 56.72 v 6.16 h 56.73 v 6.17 h 56.68 v 4.99 h 56.72 v 5.78 h 56.73 v 2.7 h 56.72 v 3.46 h 56.72 v 2.7 h 56.73 v 3.47 h 56.72 v 3.06 h 56.73 v 3.49 h 56.72 v 2.28 h 56.73 v 1.18 h 56.72 v 2.71 h 56.73" /></g><g
     id="g24"
     transform="matrix(4.7831334,0,0,4.9951559,-2560.2472,-20082.299)"><path
       inkscape:connector-curvature="0"
       id="path22"
       style="fill:none;fill-rule:nonzero;stroke:#d95f02;stroke-width:4.86000013px;stroke-linecap:butt"
       d="m 806.995,4091.09 v 3 h 56.722 v 5.97 h 56.723 v 12.98 h 56.722 v 9.98 h 56.718 v 12.95 h 56.73 v 22.97 h 56.72 v 13.96 h 56.72 v 7.99 h 56.73 v 8.97 h 56.72 v 11.98 h 56.72 v 6 h 56.73 v 8 h 56.72 v 1.98 h 56.73 v 4.99 h 56.72 v 5 h 56.73 v 5.96 h 56.72 v 1.99 h 56.73 v 4.99 h 113.45 v 4.99 h 56.68 v 2.03 h 56.72 v 4.96 h 113.45 v 2.02 h 113.45 v 1.99 h 226.9 v 3 h 113.45" /></g><g
     id="g28"
     transform="matrix(4.7831334,0,0,4.9951559,-2560.2472,-19520.594)"><path
       inkscape:connector-curvature="0"
       id="path26"
       style="fill:none;fill-rule:nonzero;stroke:#7570b3;stroke-width:4.86000013px;stroke-linecap:butt"
       d="m 806.995,3978.64 v 4.72 h 56.722 v 7.48 h 56.723 v 11.02 h 56.722 v 13.38 h 56.718 v 13.02 h 56.73 v 15.71 h 56.72 v 22.06 h 56.72 v 20.49 h 56.73 v 16.93 h 56.72 v 12.59 h 56.72 v 13.37 h 56.73 v 12.63 h 56.72 v 11.81 h 56.73 v 12.59 h 56.72 v 10.24 h 56.73 v 8.26 h 56.72 v 11.41 h 56.73 v 6.69 h 56.72 v 5.91 h 56.73 v 6.29 h 56.68 v 7.5 h 56.72 v 4.31 h 56.73 v 5.12 h 56.72 v 6.72 h 56.72 v 4.31 h 56.73 v 5.12 h 56.72 v 3.17 h 56.73 v 3.91 h 56.72 v 2.38 h 56.73 v 0.78 h 56.72 v 1.18 h 56.73" /></g><g
     id="g32"
     transform="matrix(4.7831334,0,0,4.9951559,-2560.2472,-19338.071)"><path
       inkscape:connector-curvature="0"
       id="path30"
       style="fill:none;fill-rule:nonzero;stroke:#66a61e;stroke-width:4.86000013px;stroke-linecap:square;stroke-linejoin:miter"
       d="m 806.995,3942.1 v 3.39 h 56.722 v 20.32 h 56.723 v 20.33 h 56.722 v 28.96 h 56.718 v 31.12 h 56.73 v 24.96 h 56.72 v 26.49 h 56.72 v 24.04 h 56.73 v 21.86 h 56.72 v 18.17 h 56.72 v 17.58 h 56.73 v 12.63 h 56.72 v 8.32 h 56.73 v 9.23 h 56.72 v 8.32 h 56.73 v 5.87 h 56.72 v 6.46 h 56.73 v 4.92 h 56.72 v 4.01 h 56.73 v 3.69 h 56.68 v 4.01 h 56.72 v 1.86 h 56.73 v 0.91 h 56.72 v 1.25 h 56.72 v 1.24 h 56.73 v 1.82 h 56.72 v 1.86 h 56.73 v 0.3 h 56.72 v 1.85 h 56.73 v 1.24 h 56.72 v 0.63 h 56.73 -2.99" /></g><g
     id="g36"
     transform="matrix(4.7831334,0,0,4.9951559,-2560.2472,-18479.503)"><path
       inkscape:connector-curvature="0"
       id="path34"
       style="fill:#e6ab02;fill-opacity:0.2;fill-rule:nonzero"
       d="m 806.995,3770.22 v 6.71 h 56.722 v 26.3 h 56.723 v 22.09 h 56.722 v 27.23 h 56.718 v 28.74 h 56.73 v 21.56 h 56.72 v 24.57 h 56.72 v 20.95 h 56.73 v 30.69 h 56.72 v 21.2 h 56.72 v 14.52 h 56.73 v 22.31 h 56.72 v 16.58 h 56.73 v 20.51 h 56.72 v 19.61 h 56.73 v 10.8 h 56.72 v 9.82 h 56.73 v 8.87 h 56.72 v 13.8 h 56.73 v 8.9 h 56.68 v 6.93 h 56.72 v 2.96 h 56.73 v 5.94 h 56.72 v 3.98 h 56.72 v 2.97 h 56.73 v 5.97 h 56.72 v 7.92 h 113.45 v 3.98 h 56.73 v 3.99 h 56.72 v 1.99 h 56.73 v 67.13 -5.06 h -56.73 v -2.02 h -56.72 v -4.01 h -56.73 v -4.05 h -113.45 v -8.06 h -56.72 v -6.06 h -56.73 v -3.04 h -56.72 v -4.05 h -56.72 v -6.06 h -56.73 v -3.03 h -56.72 v -7.08 h -56.68 v -9.14 h -56.73 v -14.22 h -56.72 v -9.13 h -56.73 v -10.18 h -56.72 v -11.22 h -56.73 v -20.46 h -56.72 v -21.49 h -56.73 v -17.49 h -56.72 v -23.72 h -56.73 v -15.53 h -56.72 v -22.83 h -56.72 v -33.37 h -56.73 v -23.1 h -56.72 v -27.46 h -56.72 v -24.5 h -56.73 v -33.34 h -56.718 v -32.79 H 920.44 v -27.96 h -56.723 v -37.77 h -56.722 z" /></g><g
     id="g40"
     transform="matrix(4.7831334,0,0,4.9951559,-2560.2472,-19231.025)"><path
       inkscape:connector-curvature="0"
       id="path38"
       style="fill:#666666;fill-opacity:0.2;fill-rule:nonzero"
       d="m 806.995,3920.67 v 2.77 h 56.722 v 15.92 h 56.723 v 22.67 h 56.722 v 27.37 h 56.718 v 26.52 h 56.73 v 31.32 h 56.72 v 27.11 h 56.72 v 22.38 h 56.73 v 23.02 h 56.72 v 14 h 56.72 v 12.47 h 56.73 v 10.33 h 56.72 v 11.06 h 56.73 v 9.82 h 56.72 v 6.95 h 56.73 v 5.97 h 56.72 v 6.52 h 56.73 v 5.42 h 56.72 v 4.1 h 56.73 v 3.85 h 56.68 v 5 h 56.72 v 4.57 h 56.73 v 3.98 h 56.72 v 2.71 h 56.72 v 2.53 h 56.73 v 2.03 h 56.72 v 2.42 h 56.73 v 1.56 h 56.72 v 0.98 h 56.73 v 0.59 h 56.72 v 0.72 h 56.73 v 22.41 -0.3 h -56.73 v -0.71 h -56.72 v -0.59 h -56.73 v -1.01 h -56.72 v -1.61 h -56.73 v -2.47 h -56.72 v -2.02 h -56.73 v -2.61 h -56.72 v -2.78 h -56.72 v -4.04 h -56.73 v -4.67 h -56.72 v -5.09 h -56.68 v -3.91 h -56.73 v -4.21 h -56.72 v -5.51 h -56.73 v -6.72 h -56.72 v -6.1 h -56.73 v -7.15 h -56.72 v -10.04 h -56.73 v -11.35 h -56.72 v -10.64 h -56.73 v -12.85 h -56.72 v -14.48 h -56.72 v -23.85 h -56.73 v -23.33 h -56.72 v -28.41 h -56.72 v -33.11 h -56.73 v -28.41 h -56.718 v -29.85 H 920.44 v -25.65 h -56.723 v -19.77 h -56.722 z" /></g><g
     id="g44"
     transform="matrix(4.7831334,0,0,4.9951559,-2560.2472,-18205.269)"><path
       inkscape:connector-curvature="0"
       id="path42"
       style="fill:#a6761d;fill-opacity:0.2;fill-rule:nonzero"
       d="m 806.995,3715.32 v 6 h 56.722 v 27.01 h 56.723 v 36.34 h 56.722 v 45.71 h 56.718 v 47.23 h 56.73 v 41.46 h 56.72 v 27.57 h 56.72 v 34.15 h 56.73 v 40.06 h 56.72 v 25.12 h 56.72 v 23.79 h 56.73 v 13.73 h 56.72 v 15.88 h 56.73 v 10.86 h 56.72 v 12.34 h 56.73 v 7.27 h 56.72 v 10.9 h 56.73 v 14.54 h 56.72 v 6.59 h 56.73 v 7.29 h 56.68 v 4.36 h 56.72 v 5.84 h 56.73 v 4.4 h 56.72 v 4.37 h 56.72 v 2.94 h 56.73 v 1.44 h 56.72 v 1.46 h 56.73 v 2.94 h 56.72 v 2.94 h 56.73 v 2.18 h 56.72 v 0.72 h 56.73 v 56.99 -3.65 h -56.73 v -0.75 h -56.72 v -2.19 h -56.73 v -2.91 h -56.72 v -2.93 h -56.73 v -1.47 h -56.72 v -1.46 h -56.73 v -2.91 h -56.72 v -4.4 h -56.72 v -4.4 h -56.73 v -5.84 h -56.72 v -4.41 h -56.68 v -7.34 h -56.73 v -6.59 h -56.72 v -14.71 h -56.73 v -11.03 h -56.72 v -7.37 h -56.73 v -12.53 h -56.72 v -11.09 h -56.73 v -16.24 h -56.72 v -14.1 h -56.73 v -24.46 h -56.72 v -26.06 h -56.72 v -41.86 h -56.73 v -36.08 h -56.72 v -29.46 h -56.72 v -44.82 h -56.73 v -52.23 h -56.718 v -52.29 H 920.44 v -44.11 h -56.723 v -37.35 h -56.722 z" /></g><g
     id="g48"
     transform="matrix(4.7831334,0,0,4.9951559,-2560.2472,-18918.178)"><path
       inkscape:connector-curvature="0"
       id="path46"
       style="fill:#e7298a;fill-opacity:0.2;fill-rule:nonzero"
       d="m 806.995,3858.04 v 4.63 h 56.722 v 20.19 h 56.723 v 23.55 h 56.722 v 28.48 h 56.718 V 3970 h 56.73 v 30.3 h 56.72 v 31.25 h 56.72 v 18.69 h 56.73 v 17.59 h 56.72 v 11.64 h 56.72 v 18.08 h 56.73 v 10.92 h 56.72 v 13.93 h 56.73 v 12.86 h 56.72 v 8.32 h 56.73 v 10.98 h 56.72 v 8.72 h 56.73 v 7.6 h 56.72 v 6.07 h 56.73 v 6.06 h 56.68 v 4.97 h 56.72 v 5.71 h 56.73 v 2.64 h 56.72 v 3.42 h 56.72 v 2.68 h 56.73 v 3.42 h 56.72 v 3.04 h 56.73 v 3.42 h 56.72 v 2.29 h 56.73 v 1.13 h 56.72 v 2.67 h 56.73 v 41.34 -3.88 h -56.73 v -2.71 h -56.72 v -1.17 h -56.73 v -2.35 h -56.72 v -3.49 h -56.73 v -3.1 h -56.72 v -3.53 h -56.73 v -2.7 h -56.72 v -3.53 h -56.72 v -2.7 h -56.73 v -5.84 h -56.72 v -5.09 h -56.68 v -6.23 h -56.73 v -6.23 h -56.72 v -7.83 h -56.73 v -8.97 h -56.72 v -11.35 h -56.73 v -8.62 h -56.72 v -13.31 h -56.73 v -14.51 h -56.72 v -11.43 h -56.73 v -18.88 h -56.72 v -12.23 h -56.72 v -18.57 h -56.73 v -19.79 h -56.72 v -33.41 h -56.72 v -32.85 h -56.73 v -38.76 h -56.718 v -32.36 H 920.44 v -27.98 h -56.723 v -26.79 h -56.722 z" /></g><g
     id="g52"
     transform="matrix(4.7831334,0,0,4.9951559,-2560.2472,-19962.865)"><path
       inkscape:connector-curvature="0"
       id="path50"
       style="fill:#d95f02;fill-opacity:0.2;fill-rule:nonzero"
       d="m 806.995,4067.18 h 56.722 v 3.13 h 56.723 v 9.69 h 56.722 v 8.15 h 56.718 v 11.03 h 56.73 v 20.12 h 56.72 v 12.56 h 56.72 v 7.24 h 56.73 v 8.2 h 56.72 v 10.99 h 56.72 v 5.51 h 56.73 v 7.41 h 56.72 v 1.86 h 56.73 v 4.63 h 56.72 v 4.63 h 56.73 v 5.58 h 56.72 v 1.89 h 56.73 v 4.67 h 113.45 v 4.67 h 56.68 v 1.89 h 56.72 v 4.69 h 113.45 v 1.86 h 113.45 v 1.9 h 226.9 v 2.8 h 113.45 v 47.46 -1.04 h -113.45 v -3.14 h -226.9 v -2.11 H 2111.6 v -2.09 h -113.45 v -5.28 h -56.72 v -2.13 h -56.68 v -5.28 H 1771.3 v -5.29 h -56.73 v -2.12 h -56.72 v -6.36 h -56.73 v -5.29 h -56.72 v -5.35 h -56.73 v -2.11 h -56.72 v -8.55 h -56.73 v -6.42 h -56.72 v -12.93 h -56.72 v -9.71 h -56.73 v -8.72 h -56.72 v -15.33 h -56.72 v -25.68 h -56.73 v -14.87 h -56.718 v -11.77 H 920.44 v -16.18 h -56.723 v -8.45 h -56.722 z" /></g><g
     id="g56"
     transform="matrix(4.7831334,0,0,4.9951559,-2560.2472,-19430.181)"><path
       inkscape:connector-curvature="0"
       id="path54"
       style="fill:#7570b3;fill-opacity:0.2;fill-rule:nonzero"
       d="m 806.995,3960.54 v 2.05 h 56.722 v 5.87 h 56.723 v 9.43 h 56.722 v 11.91 h 56.718 v 11.84 h 56.73 v 14.58 h 56.72 v 20.65 h 56.72 v 19.38 h 56.73 v 16.14 h 56.72 v 12.04 h 56.72 v 12.86 h 56.73 v 12.13 h 56.72 v 11.39 h 56.73 v 12.16 h 56.72 v 9.92 h 56.73 v 8.03 h 56.72 v 11.09 h 56.73 v 6.53 h 56.72 v 5.73 h 56.73 v 6.14 h 56.68 v 7.3 h 56.72 v 4.25 h 56.73 v 4.99 h 56.72 v 6.56 h 56.72 v 4.2 h 56.73 v 5.03 h 56.72 v 3.07 h 56.73 v 3.87 h 56.72 v 2.32 h 56.73 v 0.75 h 56.72 v 1.17 h 56.73 v 35.82 -0.78 h -56.73 v -1.21 h -56.72 v -0.81 h -56.73 v -2.38 h -56.72 v -4.01 h -56.73 v -3.24 h -56.72 v -5.21 h -56.73 v -4.41 h -56.72 v -6.85 h -56.72 v -5.22 h -56.73 v -4.43 h -56.72 v -7.68 h -56.68 v -6.42 h -56.73 v -6.07 h -56.72 v -6.85 h -56.73 v -11.74 h -56.72 v -8.48 h -56.73 v -10.54 h -56.72 v -13.01 h -56.73 v -12.2 h -56.72 v -13.06 h -56.73 v -13.89 h -56.72 v -13.15 h -56.72 v -17.71 h -56.73 v -21.53 h -56.72 v -23.39 h -56.72 v -16.93 h -56.73 v -14.13 H 977.162 V 3989.6 H 920.44 v -12.59 h -56.723 v -9.1 h -56.722 z" /></g><g
     id="g60"
     transform="matrix(4.7831334,0,0,4.9951559,-2560.2472,-19257.299)"><path
       inkscape:connector-curvature="0"
       id="path58"
       style="fill:#66a61e;fill-opacity:0.2;fill-rule:nonzero"
       d="m 806.995,3925.93 v 1.37 h 56.722 v 17.09 h 56.723 v 18.5 h 56.722 v 27.04 h 56.718 v 29.55 h 56.73 v 23.92 h 56.72 v 25.54 h 56.72 v 23.26 h 56.73 v 21.26 h 56.72 v 17.72 h 56.72 v 17.16 h 56.73 v 12.36 h 56.72 v 8.16 h 56.73 v 9.07 h 56.72 v 8.15 h 56.73 v 5.75 h 56.72 v 6.36 h 56.73 v 4.85 h 56.72 v 3.95 h 56.73 v 3.63 h 56.68 v 3.95 h 56.72 v 1.82 h 56.73 v 0.91 h 56.72 v 1.21 h 56.72 v 1.21 h 56.73 v 1.82 h 56.72 v 1.83 h 56.73 v 0.3 h 56.72 v 1.82 h 56.73 v 1.21 h 56.72 v 0.62 h 56.73 v 32.42 -0.32 h -56.73 v -0.62 h -56.72 v -1.24 h -56.73 v -1.89 h -56.72 v -0.29 h -56.73 v -1.9 h -56.72 v -1.86 h -56.73 v -1.27 h -56.72 v -1.23 h -56.72 v -0.95 h -56.73 v -1.87 h -56.72 v -4.07 h -56.68 v -3.75 h -56.73 v -4.05 h -56.72 v -5.03 h -56.73 v -6.55 h -56.72 v -5.97 h -56.73 v -8.45 h -56.72 v -9.39 h -56.73 v -8.48 h -56.72 v -12.9 h -56.73 v -17.93 h -56.72 v -18.63 h -56.72 v -22.44 h -56.73 v -24.76 h -56.72 v -27.44 h -56.72 v -25.97 h -56.73 v -32.65 h -56.718 v -30.83 H 920.44 v -22.15 h -56.723 v -23.55 h -56.722 z" /></g><g
     id="g64"
     transform="matrix(0,-4.9951559,-4.7831334,0,18852.55,6481.6899)"><path
       inkscape:connector-curvature="0"
       id="path62"
       style="fill:none;fill-rule:nonzero;stroke:#000000;stroke-width:4.73000002px;stroke-linecap:butt"
       d="M 166.488,3754.81 H 1277.36" /></g><g
     id="g68"
     transform="matrix(4.7831334,0,0,4.9951559,-2560.2472,-10835.816)"><path
       inkscape:connector-curvature="0"
       id="path66"
       style="fill:none;fill-rule:nonzero;stroke:#000000;stroke-width:4.73000002px;stroke-linecap:butt"
       d="m 712.278,3249.87 h 9.645" /></g><g
     id="g72"
     transform="matrix(4.7831334,0,0,4.9951559,-2560.2472,-13357.97)"><path
       inkscape:connector-curvature="0"
       id="path70"
       style="fill:none;fill-rule:nonzero;stroke:#000000;stroke-width:4.73000002px;stroke-linecap:butt"
       d="m 712.278,3502.33 h 9.645" /></g><g
     id="g76"
     transform="matrix(4.7831334,0,0,4.9951559,-2560.2472,-15880.124)"><path
       inkscape:connector-curvature="0"
       id="path74"
       style="fill:none;fill-rule:nonzero;stroke:#000000;stroke-width:4.73000002px;stroke-linecap:butt"
       d="m 712.278,3754.79 h 9.645" /></g><g
     id="g80"
     transform="matrix(4.7831334,0,0,4.9951559,-2560.2472,-18402.578)"><path
       inkscape:connector-curvature="0"
       id="path78"
       style="fill:none;fill-rule:nonzero;stroke:#000000;stroke-width:4.73000002px;stroke-linecap:butt"
       d="m 712.278,4007.28 h 9.645" /></g><g
     id="g84"
     transform="matrix(4.7831334,0,0,4.9951559,-2560.2472,-20924.732)"><path
       inkscape:connector-curvature="0"
       id="path82"
       style="fill:none;fill-rule:nonzero;stroke:#000000;stroke-width:4.73000002px;stroke-linecap:butt"
       d="m 712.278,4259.74 h 9.645" /></g><g
     id="g88"
     transform="matrix(4.7831334,0,0,4.9951559,-2560.2472,-10331.306)"><path
       inkscape:connector-curvature="0"
       id="path86"
       style="fill:none;fill-rule:nonzero;stroke:#000000;stroke-width:4.73000002px;stroke-linecap:butt"
       d="M 721.923,3199.37 H 2593.74" /></g><g
     id="g92"
     transform="matrix(0,-4.9951559,-4.7831334,0,16579.413,9705.4136)"><path
       inkscape:connector-curvature="0"
       id="path90"
       style="fill:none;fill-rule:nonzero;stroke:#000000;stroke-width:4.73000002px;stroke-linecap:butt"
       d="m 802.125,3194.5 h 9.74" /></g><g
     id="g96"
     transform="matrix(0,-4.9951559,-4.7831334,0,19292.55,12538.816)"><path
       inkscape:connector-curvature="0"
       id="path94"
       style="fill:none;fill-rule:nonzero;stroke:#000000;stroke-width:4.73000002px;stroke-linecap:butt"
       d="m 1369.35,3194.5 h 9.74" /></g><g
     id="g100"
     transform="matrix(0,-4.9951559,-4.7831334,0,22005.591,15372.119)"><path
       inkscape:connector-curvature="0"
       id="path98"
       style="fill:none;fill-rule:nonzero;stroke:#000000;stroke-width:4.73000002px;stroke-linecap:butt"
       d="m 1936.56,3194.5 h 9.74" /></g><g
     id="g104"
     transform="matrix(0,-4.9951559,-4.7831334,0,24718.776,18205.571)"><path
       inkscape:connector-curvature="0"
       id="path102"
       style="fill:none;fill-rule:nonzero;stroke:#000000;stroke-width:4.73000002px;stroke-linecap:butt"
       d="m 2503.8,3194.5 h 9.74" /></g><g
     id="g108"
     transform="matrix(-4.7831334,0,0,4.9951559,22671.547,-17919.446)"><ellipse
       id="ellipse106"
       style="fill:#66a61e"
       ry="12.98"
       rx="12.94"
       cy="3958.9199"
       cx="2637.5801" /></g><g
     id="g112"
     transform="matrix(-4.7831334,0,0,4.9951559,22671.547,-17497.156)"><ellipse
       id="ellipse110"
       ry="12.98"
       rx="12.94"
       cy="3916.6499"
       cx="2637.5801" /></g><g
     id="g116"
     transform="matrix(-4.7831334,0,0,4.9951559,22671.547,-16652.475)"><ellipse
       id="ellipse114"
       style="fill:#e6ab02"
       ry="12.98"
       rx="12.94"
       cy="3832.1001"
       cx="2637.5801" /></g><g
     id="g120"
     transform="matrix(-4.7831334,0,0,4.9951559,22671.547,-17074.816)"><ellipse
       id="ellipse118"
       style="fill:#e7298a"
       ry="12.985"
       rx="12.94"
       cy="3874.3799"
       cx="2637.5801" /></g><g
     id="g124"
     transform="matrix(-4.7831334,0,0,4.9951559,22671.547,-16230.085)"><ellipse
       id="ellipse122"
       style="fill:#a6761d"
       ry="12.98"
       rx="12.94"
       cy="3789.8201"
       cx="2637.5801" /></g><g
     id="g128"
     transform="matrix(-4.7831334,0,0,4.9951559,22671.547,-18341.837)"><ellipse
       id="ellipse126"
       style="fill:#7570b3"
       ry="12.98"
       rx="12.94"
       cy="4001.2"
       cx="2637.5801" /></g><g
     id="g132"
     transform="matrix(-4.7831334,0,0,4.9951559,22671.547,-18764.177)"><ellipse
       id="ellipse130"
       style="fill:#d95f02"
       ry="12.985"
       rx="12.94"
       cy="4043.47"
       cx="2637.5801" /></g><g
     id="g204"
     transform="matrix(4.7282852,0,0,4.9951559,-2525.7323,-1735.941)"><text
       id="text202"
       style="font-size:39.14400101px;font-family:Helvetica"
       y="1442.1801"
       x="629.27802">0.00</text>
</g><g
     id="g208"
     transform="matrix(4.7282852,0,0,4.9951559,-2525.7323,-1735.941)"><text
       id="text206"
       style="font-size:39.14400101px;font-family:Helvetica"
       y="1189.72"
       x="629.27802">0.25</text>
</g><g
     id="g212"
     transform="matrix(4.7282852,0,0,4.9951559,-2525.7323,-1735.941)"><text
       id="text210"
       style="font-size:39.14400101px;font-family:Helvetica"
       y="937.22998"
       x="629.27802">0.50</text>
</g><g
     id="g216"
     transform="matrix(4.7282852,0,0,4.9951559,-2525.7323,-1735.941)"><text
       id="text214"
       style="font-size:39.14400101px;font-family:Helvetica"
       y="684.78003"
       x="629.27802">0.75</text>
</g><g
     id="g220"
     transform="matrix(4.7282852,0,0,4.9951559,-2525.7323,-1735.941)"><text
       id="text218"
       style="font-size:39.14400101px;font-family:Helvetica"
       y="432.31"
       x="629.27802">1.00</text>
</g><g
     id="g224"
     transform="matrix(4.7282852,0,0,4.9951559,-2516.574,-1735.941)"><text
       id="text222"
       style="font-size:39.14400101px;font-family:Helvetica"
       y="1524.29"
       x="796.25098">0</text>
</g><g
     id="g228"
     transform="matrix(4.7282852,0,0,4.9951559,-2486.0527,-1735.941)"><text
       id="text226"
       style="font-size:39.14400101px;font-family:Helvetica"
       y="1524.29"
       x="1352.72">10</text>
</g><g
     id="g232"
     transform="matrix(4.7282852,0,0,4.9951559,-2454.9417,-1735.941)"><text
       id="text230"
       style="font-size:39.14400101px;font-family:Helvetica"
       y="1524.29"
       x="1919.9301">20</text>
</g><g
     id="g236"
     transform="matrix(4.7282852,0,0,4.9951559,-2423.8303,-1735.941)"><text
       id="text234"
       style="font-size:39.14400101px;font-family:Helvetica"
       y="1524.29"
       x="2487.1599">30</text>
</g><g
     id="g240"
     transform="matrix(0,-4.7282897,4.9951697,0,-2673.915,-1440.7163)"><text
       id="text238"
       style="font-weight:700;font-size:39.14400101px;font-family:Helvetica-Bold, Helvetica"
       y="564.29498"
       x="-1106.26">Survival probability</text>
</g><g
     id="g270"
     transform="matrix(4.7831334,0,0,4.9951559,-2560.2472,-1735.941)"><g
       id="g244"
       transform="matrix(0.988533,0,0,1,30.6595,0)"><text
         id="text242"
         style="font-weight:700;font-size:22.83300018px;font-family:Arial-BoldMT, Arial, sans-serif"
         y="639.97998"
         x="2673.7">GI symptoms</text>
</g><g
       id="g248"
       transform="matrix(0.988533,0,0,1,30.6532,0)"><text
         id="text246"
         style="font-weight:700;font-size:22.83300018px;font-family:Arial-BoldMT, Arial, sans-serif"
         y="682.59302"
         x="2673.1499">Pauci-symptomatic</text>
</g><g
       id="g252"
       transform="matrix(0.988533,0,0,1,30.6532,0)"><text
         id="text250"
         style="font-weight:700;font-size:22.83300018px;font-family:Arial-BoldMT, Arial, sans-serif"
         y="725.37701"
         x="2673.1499">Productive cough</text>
</g><g
       id="g256"
       transform="matrix(0.988533,0,0,1,30.6597,0)"><text
         id="text254"
         style="font-weight:700;font-size:22.83300018px;font-family:Arial-BoldMT, Arial, sans-serif"
         y="769.28003"
         x="2673.72">Core</text>
</g><g
       id="g260"
       transform="matrix(0.988533,0,0,1,30.6597,0)"><text
         id="text258"
         style="font-weight:700;font-size:22.83300018px;font-family:Arial-BoldMT, Arial, sans-serif"
         y="810.22302"
         x="2673.72">Afebrile</text>
</g><g
       id="g264"
       transform="matrix(0.988533,0,0,1,30.6597,0)"><text
         id="text262"
         style="font-weight:700;font-size:22.83300018px;font-family:Arial-BoldMT, Arial, sans-serif"
         y="853.177"
         x="2673.72">Confusion</text>
</g><g
       id="g268"
       transform="matrix(0.988533,0,0,1,30.6597,0)"><text
         id="text266"
         style="font-weight:700;font-size:22.83300018px;font-family:Arial-BoldMT, Arial, sans-serif"
         y="894.46002"
         x="2673.72">Core, fatigue, and confusion</text>
</g></g><g
     id="g274"
     transform="matrix(4.7282852,0,0,4.9951559,-2472.5633,-1735.941)"><text
       id="text272"
       style="font-weight:700;font-size:39.14400101px;font-family:Helvetica-Bold, Helvetica"
       y="1566.26"
       x="1598.66">Days</text>
</g><text
     id="text538"
     style="font-size:217.24694824px;font-family:ArialMT, Arial, sans-serif;stroke-width:4.88799524"
     y="5018.2852"
     x="1323.1619"
     transform="scale(0.97854709,1.0219232)">Log-rank - p &lt;0.001</text>
</svg>