<?xml version="1.0" standalone="no"?>
<!DOCTYPE svg PUBLIC "-//W3C//DTD SVG 20010904//EN"
 "http://www.w3.org/TR/2001/REC-SVG-20010904/DTD/svg10.dtd">
<svg version="1.0" xmlns="http://www.w3.org/2000/svg"
 width="596.000000pt" height="596.000000pt" viewBox="0 0 596.000000 596.000000"
 preserveAspectRatio="xMidYMid meet">
<metadata>
Created by potrace 1.11, written by Peter Selinger 2001-2013
</metadata>
<g transform="translate(0.000000,596.000000) scale(0.100000,-0.100000)"
fill="#000000" stroke="none">
<path d="M2424 4449 c-25 -13 -44 -49 -44 -85 0 -28 40 -74 65 -74 8 0 15 -3
15 -6 0 -4 -18 -63 -39 -133 -22 -69 -46 -152 -55 -183 l-17 -58 -73 0 -74 0
-22 73 c-11 39 -33 108 -46 152 -20 61 -23 80 -13 84 31 10 59 51 59 85 0 71
-67 110 -124 73 -47 -31 -41 -128 9 -147 l22 -8 -50 -164 c-27 -90 -50 -164
-51 -165 0 0 -35 -4 -76 -7 -213 -18 -290 -26 -320 -31 -14 -2 -52 -7 -85 -10
-71 -7 -87 -9 -230 -30 -152 -22 -156 -23 -190 -29 -16 -3 -79 -15 -140 -26
-303 -56 -529 -117 -735 -197 -63 -25 -119 -50 -125 -56 -7 -7 -4 -8 10 -2 40
16 220 77 236 80 9 2 47 12 85 24 64 18 213 55 266 65 13 2 34 7 48 10 14 3
39 8 55 11 182 33 307 55 340 60 22 3 54 7 70 10 96 15 325 43 405 50 41 4 86
8 100 10 26 4 113 11 235 20 39 3 99 7 135 10 436 31 1175 36 1640 10 246 -14
426 -27 545 -40 22 -3 69 -7 105 -10 98 -9 190 -20 405 -50 217 -30 520 -89
685 -132 52 -14 106 -27 119 -29 32 -7 291 -93 314 -106 10 -5 21 -8 23 -5 9
9 -241 105 -366 142 -265 77 -346 95 -635 145 -195 33 -305 49 -450 65 -27 3
-66 8 -85 11 -42 5 -110 12 -205 19 -38 4 -90 8 -115 10 -46 4 -166 13 -275
20 -182 12 -482 19 -810 20 l-370 0 -53 176 -52 177 35 35 c30 30 34 39 29 68
-4 19 -14 42 -23 52 -21 22 -79 30 -107 16z"/>
<path d="M45 3490 c-3 -6 1 -7 9 -4 18 7 21 14 7 14 -6 0 -13 -4 -16 -10z"/>
<path d="M2858 3458 c-237 -27 -459 -217 -611 -523 -47 -94 -101 -235 -93
-242 2 -3 7 6 11 19 16 52 91 198 142 274 360 543 924 520 1265 -51 37 -62
108 -210 108 -225 0 -5 4 -11 10 -15 28 -18 -119 318 -172 390 -208 284 -414
401 -660 373z"/>
<path d="M4603 3304 c-234 -49 -438 -256 -568 -579 -45 -111 -44 -121 2 -25
34 71 100 189 112 200 4 3 19 23 35 45 109 149 291 269 441 290 52 7 152 8
163 1 4 -2 25 -7 47 -10 179 -29 403 -235 521 -480 20 -42 38 -75 40 -73 6 6
-36 109 -73 182 -57 112 -110 184 -198 270 -156 154 -338 217 -522 179z"/>
<path d="M978 3294 c-202 -48 -402 -230 -518 -469 -48 -99 -62 -151 -19 -70
141 267 351 441 579 480 41 7 166 8 195 2 117 -27 193 -60 280 -122 128 -91
265 -263 320 -403 22 -55 29 -50 9 6 -45 132 -157 305 -258 398 -85 79 -158
126 -254 162 -82 31 -242 39 -334 16z"/>
<path d="M5400 2655 c0 -5 5 -17 10 -25 5 -8 10 -10 10 -5 0 6 -5 17 -10 25
-5 8 -10 11 -10 5z"/>
<path d="M5127 2454 c-186 -45 -314 -177 -348 -359 -6 -33 -9 -100 -7 -150 10
-192 115 -344 280 -407 71 -27 117 -33 238 -32 103 0 141 8 230 45 l45 19 -1
88 c-1 48 -4 88 -8 90 -3 2 -35 -11 -69 -27 -187 -89 -370 -44 -441 109 -30
65 -30 245 0 310 50 106 128 152 257 151 86 -1 112 -7 190 -46 38 -19 69 -35
70 -35 1 0 2 41 1 92 -1 106 -2 107 -104 139 -83 27 -250 33 -333 13z"/>
<path d="M4086 2215 c-88 -132 -173 -259 -188 -283 -26 -39 -28 -50 -28 -142
l0 -100 208 -2 207 -3 0 -77 c0 -42 3 -80 7 -83 10 -11 210 -7 217 3 3 6 5 44
4 86 l-1 76 67 0 67 0 0 85 c0 53 -4 85 -10 86 -6 1 -36 2 -66 2 l-55 2 0 293
0 292 -45 1 c-25 0 -85 1 -134 2 l-89 2 -161 -240z m200 -167 l-1 -183 -127
-2 c-71 0 -128 2 -128 5 0 11 245 370 251 367 3 -2 5 -86 5 -187z"/>
<path d="M492 2357 c-150 -55 -183 -226 -63 -329 23 -19 87 -59 142 -89 155
-83 203 -132 192 -199 -13 -87 -131 -128 -235 -82 -45 20 -93 68 -109 110 -7
18 -14 22 -27 17 -9 -4 -25 -10 -34 -12 -24 -7 -23 -13 15 -69 54 -82 120
-114 233 -114 159 0 265 83 267 209 1 86 -52 142 -218 231 -138 74 -190 116
-200 161 -9 40 20 94 60 113 41 20 115 21 159 2 37 -15 96 -71 96 -91 0 -6 6
-19 13 -29 11 -15 17 -16 40 -5 34 16 34 36 -2 85 -39 54 -60 71 -110 89 -51
18 -172 19 -219 2z"/>
<path d="M1242 2283 c-22 -49 -64 -137 -92 -198 -29 -60 -65 -137 -80 -170
-15 -33 -53 -113 -84 -179 -31 -65 -56 -122 -56 -126 0 -6 10 -6 52 -1 4 1 33
56 66 124 l59 123 156 -1 c88 0 160 -5 165 -10 5 -6 33 -62 61 -125 l52 -116
62 2 c34 1 63 3 63 3 1 1 -45 103 -103 229 -57 125 -118 256 -135 292 -99 215
-112 240 -128 240 -11 0 -30 -29 -58 -87z m116 -280 c23 -50 42 -93 42 -95 0
-6 -258 -3 -263 2 -3 3 24 65 59 139 35 73 64 139 65 145 0 12 31 -48 97 -191z"/>
<path d="M3029 2346 c-84 -33 -111 -50 -162 -105 -75 -80 -101 -146 -101 -261
0 -83 3 -103 27 -154 38 -81 87 -139 151 -176 81 -46 137 -59 240 -57 76 2
101 7 151 30 62 29 137 93 160 138 13 25 12 27 -12 38 -23 10 -28 10 -36 -5
-20 -36 -82 -96 -126 -122 -38 -22 -57 -26 -116 -26 -120 1 -211 61 -264 173
-23 49 -26 69 -26 161 0 91 3 112 25 155 52 107 147 174 253 180 101 5 159
-24 223 -112 42 -58 52 -62 78 -35 15 18 14 21 -25 66 -86 97 -179 138 -310
135 -49 -1 -94 -9 -130 -23z"/>
<path d="M99 2350 c-1 -3 -2 -170 -3 -372 -1 -321 1 -368 14 -369 101 -8 110
-6 111 20 1 36 1 649 0 691 l-1 35 -60 0 c-33 0 -60 -2 -61 -5z"/>
<path d="M1767 2345 c-2 -5 -3 -174 -2 -374 l1 -364 62 -2 62 -1 0 176 0 176
45 1 44 1 123 -166 c68 -91 126 -170 130 -176 6 -9 148 -16 148 -7 0 2 -59 83
-131 179 -72 95 -129 175 -127 177 2 1 26 14 54 28 60 30 99 73 113 123 9 33
9 45 -5 106 -7 37 -82 101 -136 118 -54 16 -376 21 -381 5z m320 -60 c39 -23
69 -77 72 -130 5 -86 -79 -152 -199 -157 l-65 -3 -3 159 -3 159 83 -5 c57 -3
93 -10 115 -23z"/>
<path d="M2480 2310 c-2 -295 0 -694 5 -698 7 -7 102 -10 112 -3 13 9 10 741
-2 742 -5 1 -34 2 -62 3 l-53 1 0 -45z"/>
</g>
</svg>
