<?xml version="1.0" encoding="UTF-8" standalone="no"?>
<!-- Created with Inkscape (http://www.inkscape.org/) -->

<svg
   xmlns:dc="http://purl.org/dc/elements/1.1/"
   xmlns:cc="http://creativecommons.org/ns#"
   xmlns:rdf="http://www.w3.org/1999/02/22-rdf-syntax-ns#"
   xmlns:svg="http://www.w3.org/2000/svg"
   xmlns="http://www.w3.org/2000/svg"
   xmlns:sodipodi="http://sodipodi.sourceforge.net/DTD/sodipodi-0.dtd"
   xmlns:inkscape="http://www.inkscape.org/namespaces/inkscape"
   version="1.1"
   id="svg2"
   width="595.79297"
   height="500.96991"
   viewBox="0 0 595.79297 500.96991"
   sodipodi:docname="logo_full.svg"
   inkscape:version="0.92.2 5c3e80d, 2017-08-06">
  <metadata
     id="metadata8">
    <rdf:RDF>
      <cc:Work
         rdf:about="">
        <dc:format>image/svg+xml</dc:format>
        <dc:type
           rdf:resource="http://purl.org/dc/dcmitype/StillImage" />
        <dc:title></dc:title>
      </cc:Work>
    </rdf:RDF>
  </metadata>
  <defs
     id="defs6">
    <rect
       height="599.99902"
       width="799.87988"
       y="121.88867"
       x="-103"
       id="SVGID_1_" />
  </defs>
  <sodipodi:namedview
     pagecolor="#ffffff"
     bordercolor="#666666"
     borderopacity="1"
     objecttolerance="10"
     gridtolerance="10"
     guidetolerance="10"
     inkscape:pageopacity="0"
     inkscape:pageshadow="2"
     inkscape:window-width="1118"
     inkscape:window-height="703"
     id="namedview4"
     showgrid="false"
     inkscape:zoom="0.46820809"
     inkscape:cx="487.7928"
     inkscape:cy="134.23033"
     inkscape:window-x="314"
     inkscape:window-y="150"
     inkscape:window-maximized="0"
     inkscape:current-layer="svg2"
     fit-margin-top="0"
     fit-margin-left="0"
     fit-margin-right="0"
     fit-margin-bottom="0" />
  <path
     inkscape:connector-curvature="0"
     style="clip-rule:evenodd;fill:#e10043;fill-rule:evenodd"
     d="m 111.83887,121.47217 c 32.6665,0 60.95312,26.39648 74.69629,64.85156 -11.71973,-41.93213 -40.74756,-71.6167 -74.69629,-71.6167 -33.94922,0 -62.97656,29.68457 -74.69824,71.62109 13.74218,-38.45947 42.02978,-64.85595 74.69824,-64.85595 z m 0,0"
     id="path903" />
  <path
     inkscape:connector-curvature="0"
     style="clip-rule:evenodd;fill:#e10043;fill-rule:evenodd"
     d="m 297.90137,57.56201 c 130.27441,0 243.08203,17.00879 297.8916,41.78711 C 549.05371,72.33008 433.28906,53.20312 297.90137,53.20312 162.5083,53.20312 46.74609,72.33008 0,99.35156 54.80469,74.5708 167.61621,57.56201 297.90137,57.56201 Z m 0,0"
     id="path905" />
  <path
     inkscape:connector-curvature="0"
     style="clip-rule:evenodd;fill:#e10043;fill-rule:evenodd"
     d="m 292.22412,107.75976 c 34.94238,0 65.19971,31.84571 79.90088,78.23926 -12.53613,-50.58838 -43.58691,-86.40136 -79.90088,-86.40136 -36.31543,0 -67.36572,35.81298 -79.90381,86.40625 14.69971,-46.39844 44.9585,-78.24415 79.90381,-78.24415 z m 0,0"
     id="path907" />
  <path
     inkscape:connector-curvature="0"
     style="clip-rule:evenodd;fill:#e10043;fill-rule:evenodd"
     d="m 470.70996,121.60596 c 32,0 59.70996,28.41015 73.17285,69.7998 -11.48047,-45.13183 -39.91699,-77.08154 -73.17285,-77.08154 -33.25683,0 -61.69238,31.94971 -73.1748,77.08594 13.46191,-41.39405 41.17285,-69.8042 73.1748,-69.8042 z m 0,0"
     id="path909" />
  <path
     inkscape:connector-curvature="0"
     style="clip-rule:evenodd;fill:#e10043;fill-rule:evenodd"
     d="m 237.02393,55.92969 c -0.85694,0 -2.25391,-0.81006 -1.55127,-3.21729 l 10.12451,-33.74365 c 0.43017,-1.39795 0.84375,-2.59473 1.70068,-2.59473 h 0.002 c 0.85694,0 1.27442,1.15332 1.7002,2.59473 l 10.12598,33.74365 c 0.70263,2.40723 -0.62061,3.21729 -1.47705,3.21729 h -20.625 z m 0,0"
     id="path911" />
  <path
     inkscape:connector-curvature="0"
     style="clip-rule:evenodd;fill:#e10043;fill-rule:evenodd"
     d="m 200.66699,57.11719 c -0.74853,0 -1.96924,-0.69483 -1.35547,-2.76123 l 8.84327,-28.95459 c 0.37597,-1.19971 0.73681,-2.22657 1.48535,-2.22657 h 0.002 c 0.74854,0 1.11328,0.98975 1.48486,2.22657 l 8.84424,28.95459 c 0.61377,2.0664 -0.5415,2.76123 -1.29004,2.76123 h -18.01416 z m 0,0"
     id="path913" />
  <path
     inkscape:connector-curvature="0"
     style="clip-rule:evenodd;fill:#e10043;fill-rule:evenodd"
     d="m 255.45313,8.71435 c 0,4.83497 -3.93018,8.75049 -8.79346,8.75049 -4.85352,0 -8.78223,-3.91552 -8.78223,-8.75049 0,-4.81494 3.92871,-8.71435 8.78223,-8.71435 4.86328,0 8.79346,3.89941 8.79346,8.71435 z m 0,0"
     id="path915" />
  <path
     inkscape:connector-curvature="0"
     style="clip-rule:evenodd;fill:#e10043;fill-rule:evenodd"
     d="m 218.1875,15.27734 c 0,4.82569 -3.61475,8.71094 -8.08301,8.71094 -4.45996,0 -8.08349,-3.88525 -8.08349,-8.71094 0,-4.79101 3.62255,-8.71093 8.08349,-8.71093 4.46826,0 8.08301,3.91992 8.08301,8.71093 z m 0,0"
     id="path917" />
  <path
     inkscape:connector-curvature="0"
     style="fill:#e10043"
     d="M 9.62598,285.06934 H 22.19434 V 210.25098 H 9.62598 Z m 44.9292,-4.05469 c -2.167,-0.69727 -4.13575,-1.71875 -5.90821,-3.06055 -1.77246,-1.34375 -3.32177,-2.98242 -4.64599,-4.91601 -1.3252,-1.9336 -2.38184,-4.11719 -3.16895,-6.55274 l -6.76758,2.79297 c 1.00196,2.75781 2.27344,5.22852 3.81348,7.41211 1.53906,2.18555 3.39209,4.0293 5.55908,5.5332 2.16602,1.50391 4.66358,2.65039 7.49268,3.4375 2.82812,0.78711 6.0332,1.18164 9.61426,1.18164 4.43945,0 8.33349,-0.56445 11.68213,-1.6914 3.34765,-1.12891 6.1499,-2.66797 8.40576,-4.61914 2.25586,-1.95118 3.94775,-4.22461 5.07568,-6.82227 1.12793,-2.5957 1.69189,-5.37891 1.69189,-8.35156 0,-2.61328 -0.60937,-4.98633 -1.82617,-7.11719 -1.21777,-2.12891 -2.81152,-4.08984 -4.78027,-5.88086 -1.96973,-1.79101 -4.22559,-3.4375 -6.76758,-4.94141 -2.54297,-1.5039 -5.12939,-2.95507 -7.76123,-4.35156 -2.63184,-1.39648 -5.21924,-2.76562 -7.76123,-4.10742 -2.54297,-1.34375 -4.79883,-2.74805 -6.76758,-4.2168 -1.96972,-1.46875 -3.56347,-3.01562 -4.78027,-4.64648 -1.21777,-1.62891 -1.82617,-3.42774 -1.82617,-5.39844 0,-1.39648 0.29541,-2.76562 0.88623,-4.10742 0.59082,-1.34375 1.46777,-2.54297 2.63183,-3.59961 1.16309,-1.05469 2.63184,-1.91406 4.4043,-2.57812 1.77246,-0.66211 3.84033,-0.99415 6.20361,-0.99415 2.64942,0 5.03028,0.36915 7.14356,1.10157 2.1123,0.73437 3.98291,1.78125 5.61279,3.14258 1.62891,1.36132 3.02539,2.99023 4.18945,4.88671 1.16309,1.89844 2.12159,3.99414 2.87354,6.28516 l 6.44531,-2.95508 c -1.82617,-5.62109 -4.78955,-9.91797 -8.88916,-12.89062 -4.10058,-2.97071 -9.69482,-4.45703 -16.78467,-4.45703 -3.93945,0 -7.42138,0.50976 -10.44677,1.53125 -3.02637,1.01953 -5.57764,2.42578 -7.65381,4.21484 -2.07715,1.79102 -3.65235,3.91406 -4.72656,6.36523 -1.07422,2.45313 -1.61133,5.11133 -1.61133,7.97657 0,2.86523 0.59082,5.39843 1.77246,7.59961 1.18164,2.20312 2.72998,4.18945 4.64599,5.96289 1.91504,1.77148 4.10889,3.38281 6.57959,4.83398 2.47071,1.44922 4.98584,2.83789 7.54639,4.16211 2.55957,1.32422 5.07568,2.64063 7.54639,3.94727 2.4707,1.30859 4.66357,2.71289 6.57959,4.21679 1.91504,1.50391 3.46435,3.14258 4.64599,4.91407 1.18164,1.77343 1.77246,3.80468 1.77246,6.0957 0,1.89844 -0.42968,3.57226 -1.28906,5.02344 -0.85937,1.44921 -1.99658,2.67578 -3.41064,3.67773 -1.41504,1.00391 -3.02637,1.75586 -4.83399,2.25586 -1.80859,0.50195 -3.64404,0.75195 -5.50537,0.75195 -2.43555,0 -4.73584,-0.34765 -6.90185,-1.04687 z m 73.9331,-72.48242 -36.04004,76.53711 h 6.284182 l 11.816408,-24.97461 h 32.06543 l 11.44043,24.97461 h 12.7832 l -35.23437,-76.53711 z m -1.77246,17.13281 13.58887,29.5957 h -27.55371 z m 49.79004,59.4043 h 12.56836 v -35.17969 h 8.80859 l 25.9961,35.17969 h 14.55566 l -27.23144,-36.3086 c 2.7207,-0.64453 5.20996,-1.56445 7.46582,-2.76562 2.25586,-1.19922 4.18945,-2.61328 5.80078,-4.24219 1.61133,-1.62891 2.85498,-3.45508 3.73291,-5.47852 0.87695,-2.02343 1.31592,-4.19922 1.31592,-6.52734 0,-2.82813 -0.57325,-5.43164 -1.71875,-7.81445 -1.14649,-2.38086 -2.84668,-4.43946 -5.10254,-6.17578 -2.25586,-1.73633 -5.07569,-3.08985 -8.45948,-4.05665 -3.38379,-0.96679 -7.33154,-1.44921 -11.84326,-1.44921 h -25.88867 z m 12.56836,-70.14649 h 11.06445 c 2.29102,0 4.4043,0.37695 6.33789,1.12891 1.9336,0.75195 3.59864,1.79883 4.99512,3.14258 1.39648,1.34179 2.48828,2.95312 3.27637,4.83398 0.78711,1.87891 1.18164,3.92969 1.18164,6.14844 0,2.43554 -0.49268,4.63867 -1.47705,6.60742 -0.98535,1.96875 -2.35498,3.64453 -4.10889,5.02148 -1.75488,1.37891 -3.82275,2.44336 -6.20361,3.19532 -2.38184,0.75195 -4.98682,1.1289 -7.81494,1.1289 h -7.25098 z m 58.75976,70.14649 h 12.56836 v -74.81836 h -12.56836 z m 45.27832,-51.34766 c 1.61133,-4.18945 3.81348,-7.75195 6.60645,-10.6875 2.79297,-2.93555 6.06934,-5.19141 9.8291,-6.76758 3.75977,-1.57617 7.80567,-2.36328 12.13867,-2.36328 5.0127,0 9.45313,1.41406 13.32032,4.24219 3.86718,2.83008 7.37597,7.26953 10.52734,13.32031 l 5.4248,-3.65234 c -1.54003,-2.50586 -3.38378,-4.92188 -5.53222,-7.25 -2.14844,-2.32813 -4.61084,-4.37696 -7.38526,-6.15039 -2.77539,-1.77149 -5.83691,-3.19532 -9.18457,-4.26954 -3.34863,-1.07421 -7.00927,-1.61132 -10.98388,-1.61132 -4.18946,0 -8.12891,0.48242 -11.81641,1.44921 -3.68848,0.9668 -7.08154,2.32032 -10.17822,4.05665 -3.09766,1.73632 -5.88135,3.82226 -8.35205,6.25585 -2.47071,2.43555 -4.55713,5.11329 -6.25733,8.03125 -1.70117,2.91797 -3.00781,6.03321 -3.9209,9.34571 -0.91308,3.3125 -1.36962,6.72265 -1.36962,10.23047 0,3.50976 0.44726,6.91211 1.34277,10.20507 0.89453,3.29493 2.17529,6.38477 3.84033,9.26563 1.66504,2.88281 3.70606,5.52344 6.12305,7.92187 2.41699,2.4004 5.15625,4.45118 8.21777,6.1504 3.06153,1.70117 6.41846,3.02734 10.0708,3.9746 3.65235,0.94922 7.53711,1.42383 11.65528,1.42383 4.29687,0 8.18164,-0.53711 11.65527,-1.61133 3.47266,-1.07421 6.58789,-2.49804 9.3457,-4.26953 2.75684,-1.77343 5.18311,-3.82226 7.27783,-6.15039 2.09473,-2.32812 3.91163,-4.74414 5.45166,-7.25195 l -5.26367,-3.38281 c -1.07422,2.11328 -2.43554,4.19922 -4.08203,6.25781 -1.64746,2.05859 -3.51806,3.90234 -5.61279,5.53125 -2.09473,1.63086 -4.35986,2.95508 -6.79444,3.97461 -2.43554,1.02148 -4.95996,1.53125 -7.57324,1.53125 -4.40429,0 -8.4956,-0.75977 -12.27295,-2.2832 -3.77832,-1.52149 -7.04541,-3.72266 -9.80224,-6.60547 -2.75782,-2.88281 -4.92383,-6.40039 -6.49903,-10.55469 -1.57617,-4.1543 -2.36328,-8.86328 -2.36328,-14.12695 0,-5.26367 0.80567,-9.99024 2.41699,-14.17969 z"
     id="path919" />
  <text
     xml:space="preserve"
     style="font-style:normal;font-variant:normal;font-weight:bold;font-stretch:normal;font-size:128px;line-height:1.25;font-family:sans-serif;-inkscape-font-specification:'sans-serif Bold';letter-spacing:0px;word-spacing:0px;fill:#e10043;fill-opacity:1;stroke:none"
     x="381.32367"
     y="293.82907"
     id="text4803"><tspan
       sodipodi:role="line"
       id="tspan4801"
       x="381.32367"
       y="293.82907">4C</tspan></text>
  <text
     id="text4826"
     y="343.97723"
     x="23.9286"
     style="font-style:normal;font-variant:normal;font-weight:normal;font-stretch:normal;font-size:64px;line-height:1.25;font-family:sans-serif;-inkscape-font-specification:sans-serif;letter-spacing:0px;word-spacing:0px;fill:#e10043;fill-opacity:1;stroke:none"
     xml:space="preserve"><tspan
       y="343.97723"
       x="23.9286"
       sodipodi:role="line"
       id="tspan4836"><tspan
   style="font-weight:bold;font-size:64px"
   id="tspan4876">C</tspan>oronavirus</tspan></text>
  <text
     xml:space="preserve"
     style="font-style:normal;font-variant:normal;font-weight:normal;font-stretch:normal;font-size:64px;line-height:1.25;font-family:sans-serif;-inkscape-font-specification:sans-serif;letter-spacing:0px;word-spacing:0px;fill:#e10043;fill-opacity:1;stroke:none"
     x="23.9286"
     y="396.00604"
     id="text4866"><tspan
       id="tspan4864"
       sodipodi:role="line"
       x="23.9286"
       y="396.00604"><tspan
   style="font-weight:bold;font-size:64px"
   id="tspan4878">C</tspan>linical</tspan></text>
  <text
     id="text4870"
     y="448.03485"
     x="23.9286"
     style="font-style:normal;font-variant:normal;font-weight:normal;font-stretch:normal;font-size:64px;line-height:1.25;font-family:sans-serif;-inkscape-font-specification:sans-serif;letter-spacing:0px;word-spacing:0px;fill:#e10043;fill-opacity:1;stroke:none"
     xml:space="preserve"><tspan
       y="448.03485"
       x="23.9286"
       sodipodi:role="line"
       id="tspan4868"><tspan
   style="font-weight:bold;font-size:64px"
   id="tspan4880">C</tspan>haracterisation</tspan></text>
  <text
     xml:space="preserve"
     style="font-style:normal;font-variant:normal;font-weight:normal;font-stretch:normal;font-size:64px;line-height:1.25;font-family:sans-serif;-inkscape-font-specification:sans-serif;letter-spacing:0px;word-spacing:0px;fill:#e10043;fill-opacity:1;stroke:none"
     x="23.9286"
     y="500.06366"
     id="text4874"><tspan
       id="tspan4872"
       sodipodi:role="line"
       x="23.9286"
       y="500.06366"><tspan
   style="font-weight:bold;font-size:64px"
   id="tspan4882">C</tspan>onsortium</tspan></text>
</svg>
